HIERARCHY
ROOT Hips
{
	OFFSET 0.000000 0.000000 0.000000
	CHANNELS 6 Xposition Yposition Zposition Zrotation Yrotation Xrotation 
		JOINT LeftUpLeg
		{
			OFFSET 1.363060 -1.794630 0.839290
			CHANNELS 3 Zrotation Yrotation Xrotation
			JOINT LeftLeg
			{
				OFFSET 2.448110 -6.726130 0.000000
				CHANNELS 3 Zrotation Yrotation Xrotation
				JOINT LeftFoot
				{
					OFFSET 2.562200 -7.039590 0.000000
					CHANNELS 3 Zrotation Yrotation Xrotation
					JOINT LeftToeBase
					{
						OFFSET 0.157640 -0.433110 2.322550
						CHANNELS 3 Zrotation Yrotation Xrotation
						End Site
						{
							OFFSET 0.000000 0.000000 0.000000
						}
					}
				}
			}
		}
		JOINT RightUpLeg
		{
			OFFSET -1.305520 -1.794630 0.839290
			CHANNELS 3 Zrotation Yrotation Xrotation
			JOINT RightLeg
			{
				OFFSET -2.542530 -6.985550 0.000000
				CHANNELS 3 Zrotation Yrotation Xrotation
				JOINT RightFoot
				{
					OFFSET -2.568260 -7.056230 0.000000
					CHANNELS 3 Zrotation Yrotation Xrotation
					JOINT RightToeBase
					{
						OFFSET -0.164730 -0.452590 2.363150
						CHANNELS 3 Zrotation Yrotation Xrotation
						End Site
						{
							OFFSET 0.000000 0.000000 0.000000
						}
					}
				}
			}
		}
		JOINT Spine
		{
			OFFSET -0.000000 1.017795 0.000000
			CHANNELS 3 Zrotation Yrotation Xrotation
			JOINT Spine1
			{
				OFFSET 0.056720 2.048850 -0.042750
				CHANNELS 3 Zrotation Yrotation Xrotation
            JOINT Spine2
            {
                OFFSET -0.000000 1.017795 0.000000
                CHANNELS 3 Zrotation Yrotation Xrotation
					JOINT Neck1
					{
						OFFSET -0.054170 1.746240 0.172020
						CHANNELS 3 Zrotation Yrotation Xrotation
						JOINT Head
						{
							OFFSET 0.104070 1.761360 -0.123970
							CHANNELS 3 Zrotation Yrotation Xrotation
							End Site
							{
								OFFSET 0.000000 0.000000 0.000000
							}
						}
					}
				JOINT LeftShoulder
				{
					OFFSET 0.000000 0.000000 0.000000
					CHANNELS 3 Zrotation Yrotation Xrotation
					JOINT LeftArm
					{
						OFFSET 3.362410 1.200890 -0.311210
						CHANNELS 3 Zrotation Yrotation Xrotation
						JOINT LeftForeArm
						{
							OFFSET 4.983000 -0.000000 -0.000000
							CHANNELS 3 Zrotation Yrotation Xrotation
							JOINT LeftHand
							{
								OFFSET 3.483560 -0.000000 -0.000000
								CHANNELS 3 Zrotation Yrotation Xrotation
									End Site
									{
										OFFSET 0.000000 0.000000 0.000000
									}
							}
						}
					}
				}
				JOINT RightShoulder
				{
					OFFSET 0.000000 0.000000 0.000000
					CHANNELS 3 Zrotation Yrotation Xrotation
					JOINT RightArm
					{
						OFFSET -3.136600 1.374050 -0.404650
						CHANNELS 3 Zrotation Yrotation Xrotation
						JOINT RightForeArm
						{
							OFFSET -5.241900 -0.000000 -0.000000
							CHANNELS 3 Zrotation Yrotation Xrotation
							JOINT RightHand
							{
								OFFSET -3.444170 -0.000000 -0.000000
								CHANNELS 3 Zrotation Yrotation Xrotation
									End Site
									{
										OFFSET 0.000000 0.000000 0.000000
									}
							}
						}
					}
				}
			}
            }
		}
}
MOTION
Frames: 13
Frame Time: 0.008333
3.070464    16.750404    1.299771    -143.259476    -89.029869    153.587971    -16.075252    5.7692239999999995    6.298099000000001    -0.997463    1.373269    22.867921    0.438393    1.833524    1.152208    0.283300    0.000000    -77.435700    16.733565    5.231692    -30.106496    2.689794    -0.044527    7.919012    -0.149775    -2.365646    10.423621    -1.559800    -0.000000    -33.118100    0.000000    0.000000    0.000000    4.515305    -7.166174    -6.853099    -7.425261    -3.879618    0.897789    4.637269000000001    -8.302833    -4.799244    0.000000    0.000000    0.000000    -6.635953    2.559807    1.274924    -57.544199    -17.808994    13.725097    -2.623637    -46.340275    -0.015922    6.184483    0.350762    0.011573    19.385695    -7.958919    0.698647    63.248148    -6.793663    -15.990503    4.238727    7.768994    0.009359    -2.436176    4.611230    -0.103830
2.887594    16.778226    1.273432    -129.232236    -88.828535    139.588063    -15.550695999999999    6.181591    5.133786    -0.731645    1.555677    25.332905    0.459908    1.659044    3.333530    0.288000    0.000001    -78.506701    17.036438    5.575709    -29.828015    2.705296    -0.133470    8.897095    -0.185459    -2.544318    10.056895    -1.606100    0.000000    -32.048800    0.000000    0.000000    0.000000    5.007193    -7.083672    -7.0120640000000005    -7.394241    -3.859150    0.899927    4.559608    -8.120768    -4.783305    0.000000    0.000000    0.000000    -6.790107    2.746983    1.241020    -58.512928    -17.121491    13.533152    -2.681503    -44.687281    -0.015363    6.311378    0.329629    0.011093    19.330614    -7.771366    0.664911    63.357516    -6.397901    -16.002573    4.246103    7.541907    0.009260    -2.568767    4.585103    -0.108628
2.709571    16.806888    1.245081    -121.466555    -88.526759    131.846801    -15.028639000000002    6.616312    3.83392    -0.472368    1.728291    27.937264    0.513128    1.520031    5.609086    0.268299    0.000000    -78.479500    17.403844    5.922534000000001    -29.505353    2.722126    -0.209181    9.812660    -0.231759    -2.748865    9.514604    -1.648600    0.000000    -30.927500    0.000000    0.000000    0.000000    5.475201    -6.965718    -7.130076    -7.369406    -3.820076    0.894854    4.505196    -7.914338    -4.762778    0.000000    0.000000    0.000000    -6.855960    2.920823    1.212517    -59.511893    -16.434066    13.258728    -2.731287    -42.921032    -0.014912    6.460457    0.337192    0.012103    19.290648    -7.552184    0.635623    63.526597    -5.945230    -15.996606    4.248660    7.342949    0.009139    -2.679472    4.558311    -0.112426
2.536557    16.835964    1.214138    -116.773595    -88.229409    127.177880    -14.555259    7.013531    2.4234310000000003    -0.220877    1.882222    30.652393    0.602867    1.499976    7.882593    0.247101    -0.000000    -77.245800    17.783634    6.224575    -29.142651    2.736966    -0.271913    10.648374    -0.285770    -2.960821    8.824198    -1.679500    0.000000    -29.793300    0.000000    0.000000    0.000000    5.866085999999999    -6.850077000000001    -7.210058    -7.349930    -3.779783    0.886584    4.481525    -7.695507    -4.740748    0.000000    0.000000    0.000000    -6.831622    3.062677    1.192341    -60.520269    -15.750635    12.908535    -2.773625    -41.064517    -0.014539    6.618235    0.376801    0.015107    19.280100    -7.320256    0.611318    63.753614    -5.431445    -15.943046    4.244388    7.181817    0.008989    -2.769290    4.529937    -0.115324
2.368940    16.865121    1.181157    -113.249476    -87.962295    123.671740    -14.137177999999999    7.357081    0.914575    0.016696    2.016067    33.457318    0.727095    1.659831    10.036968    0.256100    -0.000000    -74.826100    18.161555    6.473551    -28.723188999999998    2.751628    -0.318037    11.365024    -0.346814    -3.186865    8.034781    -1.702300    -0.000000    -28.664600    0.000000    0.000000    0.000000    6.180752    -6.748087    -7.252326    -7.335334    -3.743429    0.874418    4.483805    -7.462452    -4.71586    0.000000    0.000000    0.000000    -6.738070    3.167684    1.183783    -61.514681    -15.077546    12.497477    -2.809108    -39.145375    -0.014222    6.768875    0.454308    0.020508    19.292971    -7.074204    0.592904    64.037241    -4.861622    -15.859626    4.233959    7.061350    0.008828    -2.830461    4.507305    -0.117220
2.206506    16.894089    1.146430    -110.099317    -87.738808    120.534625    -13.785013    7.629609    -0.676037    0.234128    2.132024    36.325757    0.881104    2.071174    11.960047    0.338899    0.000000    -71.364000    18.52966    6.654043    -28.246887    2.767394    -0.346656    11.945456    -0.411620    -3.414580    7.187059    -1.714099    -0.000000    -27.561900    0.000000    0.000000    0.000000    6.4165529999999995    -6.664617    -7.258199    -7.325503    -3.713013    0.859481    4.509806000000001    -7.227417    -4.691034    0.000000    0.000000    0.000000    -6.590934    3.231052    1.187936    -62.475974    -14.417802    12.042533    -2.838585    -37.192609    -0.013929    6.895346    0.572122    0.028508    19.329221    -6.826441    0.580623    64.370324    -4.234004    -15.706774    4.217150    6.995731    0.008651    -2.866269    4.487974    -0.118116
2.048977    16.922651    1.110618    -106.773704    -87.557576    117.216617    -13.495211    7.824158    -2.338422    0.429116    2.234481    39.232848    1.058407    2.786848    13.559125    0.536100    -0.000001    -67.139500    18.887398    6.761589000000001    -27.713613    2.786597    -0.357071    12.374417    -0.477908    -3.639573    6.321135    -1.716200    0.000000    -26.492300    0.000000    0.000000    0.000000    6.588489    -6.6019950000000005    -7.233623    -7.320110    -3.690084    0.840564    4.5525850000000005    -6.985524    -4.663519    0.000000    0.000000    0.000000    -6.415675    3.255985    1.206601    -63.383473    -13.775521    11.572289    -2.863521    -35.236156    -0.013639    6.980470    0.734749    0.039212    19.379907    -6.571083    0.573910    64.749159    -3.561492    -15.521428    4.195435    6.983272    0.008488    -2.865736    4.484724    -0.117910
1.896060    16.950721    1.074037    -103.050892    -87.420428    113.493947    -13.275459    7.931079    -4.054343    0.601940    2.328798    42.144901    1.254022    3.847637    14.776158    0.878800    0.000000    -62.513600    19.229267    6.783941    -27.135572000000003    2.809424    -0.351348    12.659139    -0.541653    -3.844139    5.466085    -1.705500    -0.000000    -25.473299    0.000000    0.000000    0.000000    6.696931    -6.560354    -7.18128    -7.318734    -3.674610    0.818174    4.608764999999999    -6.746836    -4.634887    0.000000    0.000000    0.000000    -6.227692    3.242367    1.238993    -64.223155    -13.150066    11.111161    -2.885306    -33.304942    -0.013331    7.009475    0.940837    0.052421    19.444292    -6.317571    0.572016    65.164940    -2.846950    -15.274624    4.168906    7.034348    0.008344    -2.831827    4.497493    -0.116902
1.747112    16.978265    1.037121    -98.757486    -87.320960    109.196529    -13.126395    7.946746    -5.808802    0.755534    2.419321    45.028388    1.464527    5.258726    15.585380    1.375300    -0.000001    -57.865100    19.551504    6.7202839999999995    -26.523248000000002    2.836121    -0.331290    12.808264    -0.600364    -4.020558    4.646644    -1.683100    0.000000    -24.513900    0.000000    0.000000    0.000000    6.750729    -6.537447    -7.108366999999999    -7.320687    -3.665865    0.791920    4.672321    -6.510641    -4.603088    0.000000    0.000000    0.000000    -6.046054    3.195005    1.284281    -64.983742    -12.539122    10.687151    -2.905434    -31.427615    -0.012987    6.970484    1.188502    0.067739    19.515705    -6.064378    0.573833    65.611302    -2.100405    -14.986167    4.138696    7.146309    0.008241    -2.759926    4.536110    -0.114993
1.601857    17.005289    1.000030    -93.894740    -87.255734    104.320872    -13.05573    7.868864    -7.579795    0.892767    2.509741    47.844980    1.688146    6.996316    15.988787    2.010300    -0.000000    -53.495300    19.846159999999998    6.568414000000001    -25.891258    2.865072    -0.300400    12.844459    -0.651080    -4.155901    3.877079    -1.648200    0.000000    -23.632600    0.000000    0.000000    0.000000    6.745623    -6.527951    -7.01422    -7.325555    -3.660935    0.763979    4.742238    -6.295939    -4.573352    0.000000    0.000000    0.000000    -5.878922    3.119861    1.338853    -65.661555    -11.943133    10.321634    -2.925320    -29.626882    -0.012587    6.857217    1.468998    0.083867    19.599871    -5.828963    0.577857    66.073146    -1.324125    -14.555567    4.103864    7.350861    0.008144    -2.668518    4.581695    -0.112384
1.459430    17.031864    0.963217    -88.477751    -87.210283    98.889746    -13.05764    7.704305    -9.357254999999999    1.016661    2.601469    50.563013    1.922588    8.993996    16.003830    2.741300    -0.000000    -49.607500    20.109704    6.347237    -25.248262999999998    2.895601    -0.260274    12.782299    -0.694390    -4.258589    3.170132    -1.606400    0.000000    -22.830800    0.000000    0.000000    0.000000    6.695320000000001    -6.525380999999999    -6.912716    -7.332197    -3.657541    0.731764    4.809810000000001    -6.08387    -4.5368949999999995    0.000000    0.000000    0.000000    -5.742434    3.024439    1.401897    -66.251312    -11.350441    10.036573    -2.945773    -27.930480    -0.012133    6.666958    1.777664    0.099907    19.681805    -5.591188    0.583035    66.551670    -0.535195    -14.097548    4.066965    7.615360    0.008112    -2.539533    4.662258    -0.108871
1.319505    17.058064    0.926670    -82.712890    -87.179962    93.107402    -13.134723000000001    7.464276999999999    -11.12245    1.128219    2.695999    53.146734    2.164393    11.164486    15.658640    3.509700    -0.000000    -46.242600    20.334977000000002    6.068141    -24.604934    2.925110    -0.214356    12.649602    -0.729496    -4.325057    2.526317    -1.558300    -0.000000    -22.124500    0.000000    0.000000    0.000000    6.5937269999999994    -6.520354    -6.801435    -7.340528    -3.650726    0.700162    4.876817000000001    -5.898515    -4.502993    0.000000    0.000000    0.000000    -5.637779    2.925711    1.468006    -66.757004    -10.769814    9.848094    -2.967962    -26.350296    -0.011615    6.406156    2.099076    0.114455    19.771944    -5.372993    0.587141    67.028515    0.269753    -13.469420    4.026183    7.980574    0.008084    -2.403987    4.746429    -0.105057
1.183026    17.084379    0.897249    -63.807079    -86.902365    74.183881    -13.168047999999999    6.351391    -12.878724    1.232696    2.843895    55.839015    2.412208    13.335442    14.945786    4.205301    -0.000000    -43.398500    20.756756    4.783193    -24.071627999999997    3.036212    -0.112220    12.250965    -0.732270    -4.300570    1.975670    -1.506600    -0.000000    -21.372900    0.000000    0.000000    0.000000    6.612237    -6.884676000000001    -6.727634    -7.327919    -3.826908    0.668210    4.882276    -5.709436999999999    -4.446621    0.000000    0.000000    0.000000    -5.658606    2.723860    1.571050    -67.197124    -10.233646    9.753436    -2.988002    -24.875022    -0.011277    6.083793    2.427789    0.126411    19.783022    -5.267974    0.560770    67.488282    1.080908    -12.784568    3.989637    8.419843    0.008135    -2.251541    4.855116    -0.100845
